<svg xmlns="http://www.w3.org/2000/svg" width="337" height="584" viewBox="0 0 337 584"><rect width="100%" height="100%" fill="#DDDDDD"/><path fill="#999999" d="m71.4 285.315-2.92-.52q.33-2.34 1.3-4.1.97-1.77 2.42-2.95 1.45-1.18 3.33-1.78 1.88-.59 4.04-.59 2.25 0 4.06.64 1.81.64 3.09 1.77 1.29 1.14 1.97 2.67.69 1.53.69 3.31 0 1.55-.35 2.73t-1 2.06q-.65.88-1.62 1.49-.97.6-2.18 1.01 2.92.92 4.36 2.81 1.44 1.89 1.44 4.75 0 2.43-.9 4.3-.9 1.86-2.43 3.13-1.53 1.28-3.54 1.93-2.02.65-4.27.65-2.45 0-4.27-.56-1.82-.57-3.17-1.67-1.35-1.1-2.3-2.7-.95-1.6-1.62-3.69l2.45-1.01q.97-.4 1.81-.21.85.19 1.23.91.4.78.89 1.55.48.77 1.16 1.36.67.6 1.58.97t2.18.37q1.41 0 2.47-.46 1.06-.46 1.77-1.2.71-.75 1.05-1.66.35-.91.35-1.83 0-1.17-.24-2.13-.25-.95-1.04-1.63-.79-.67-2.26-1.06-1.48-.38-3.95-.38v-3.96q2.05-.02 3.4-.38t2.15-1q.8-.64 1.11-1.54.31-.9.31-1.99 0-2.29-1.28-3.48t-3.42-1.19q-.99 0-1.82.28-.83.28-1.5.78-.66.51-1.11 1.19-.45.67-.68 1.48-.38 1.03-1 1.37-.61.34-1.74.16Zm26.1 0-2.92-.52q.33-2.34 1.3-4.1.97-1.77 2.42-2.95 1.45-1.18 3.33-1.78 1.88-.59 4.04-.59 2.25 0 4.06.64 1.81.64 3.09 1.77 1.28 1.14 1.97 2.67t.69 3.31q0 1.55-.35 2.73t-1 2.06q-.66.88-1.62 1.49-.97.6-2.19 1.01 2.93.92 4.37 2.81 1.44 1.89 1.44 4.75 0 2.43-.9 4.3-.9 1.86-2.43 3.13-1.53 1.28-3.54 1.93-2.02.65-4.27.65-2.45 0-4.27-.56-1.83-.57-3.17-1.67-1.36-1.1-2.3-2.7-.95-1.6-1.62-3.69l2.45-1.01q.97-.4 1.81-.21.85.19 1.23.91.4.78.89 1.55.48.77 1.16 1.36.67.6 1.58.97t2.17.37q1.42 0 2.48-.46t1.77-1.2q.71-.75 1.05-1.66.35-.91.35-1.83 0-1.17-.25-2.13-.24-.95-1.03-1.63-.79-.67-2.26-1.06-1.48-.38-3.95-.38v-3.96q2.05-.02 3.4-.38t2.15-1q.79-.64 1.11-1.54.31-.9.31-1.99 0-2.29-1.28-3.48t-3.42-1.19q-.99 0-1.82.28-.83.28-1.5.78-.66.51-1.11 1.19-.45.67-.68 1.48-.38 1.03-1 1.37-.61.34-1.74.16Zm22.84-9.58h22.47v2.4q0 1.08-.22 1.75-.23.66-.45 1.11l-12.33 25.38q-.38.79-1.08 1.34-.7.55-1.87.55h-4.03l12.58-24.86q.43-.77.85-1.41.41-.64.93-1.22h-15.57q-.52 0-.9-.39-.38-.38-.38-.9v-3.75Zm58.61 25.08-2.95 2.91-7.63-7.63-7.69 7.67-2.95-2.9 7.7-7.72-7.34-7.33 2.93-2.93 7.33 7.34 7.29-7.29 2.97 2.92-7.31 7.31 7.65 7.65Zm23.65-20.04-1.15 6.77q1.08-.23 2.07-.33.99-.1 1.91-.1 2.57 0 4.52.77 1.96.76 3.29 2.11 1.33 1.35 2 3.16.68 1.81.68 3.9 0 2.59-.91 4.73-.92 2.14-2.54 3.66t-3.83 2.35q-2.22.83-4.83.83-1.53 0-2.9-.32-1.37-.31-2.58-.84-1.2-.53-2.22-1.21-1.03-.69-1.84-1.45l1.71-2.37q.54-.76 1.42-.76.56 0 1.15.36.58.36 1.34.79.75.42 1.77.78 1.03.36 2.47.36 1.53 0 2.7-.49 1.17-.5 1.94-1.39.78-.88 1.17-2.11.4-1.23.4-2.67 0-2.65-1.54-4.15-1.55-1.5-4.56-1.5-2.32 0-4.75.86l-3.46-.99 2.7-15.79h16.06v2.36q0 1.19-.74 1.93-.74.75-2.52.75h-8.93Zm28.86 23.51q1.38 0 2.41-.4 1.04-.39 1.75-1.09.7-.7 1.06-1.66.36-.97.36-2.09 0-2.68-1.48-4.06-1.49-1.37-4.1-1.37-2.61 0-4.09 1.37-1.49 1.38-1.49 4.06 0 1.12.36 2.09.36.96 1.07 1.66.71.7 1.75 1.09 1.03.4 2.4.4Zm0-24.73q-1.23 0-2.13.38-.9.38-1.5 1.03-.6.64-.88 1.47t-.28 1.76q0 .96.24 1.87.23.91.8 1.62.56.71 1.48 1.14.92.43 2.27.43t2.28-.43q.92-.43 1.48-1.14.56-.71.8-1.62.24-.91.24-1.87 0-.93-.3-1.76-.29-.83-.87-1.47-.59-.65-1.49-1.03t-2.14-.38Zm5.49 11.75q2.97.96 4.39 2.95 1.42 2 1.42 4.88 0 2.16-.82 3.91-.82 1.76-2.31 2.99-1.48 1.24-3.56 1.91-2.09.68-4.61.68-2.52 0-4.6-.68-2.08-.67-3.56-1.91-1.49-1.23-2.31-2.99-.82-1.75-.82-3.91 0-2.88 1.42-4.88 1.41-1.99 4.38-2.95-2.36-.99-3.54-2.82-1.18-1.82-1.18-4.38 0-1.85.75-3.45.76-1.59 2.11-2.78 1.35-1.18 3.23-1.84 1.87-.66 4.12-.66t4.13.66q1.88.66 3.23 1.84 1.35 1.19 2.11 2.78.75 1.6.75 3.45 0 2.56-1.18 4.38-1.18 1.83-3.55 2.82Zm13.68 4.7h9.9v-10.64q0-1.51.21-3.33l-10.11 13.97Zm14.74 0h4.1v3.22q0 .45-.3.77-.29.33-.83.33h-2.97v7.94h-4.84v-7.94h-13.72q-.56 0-.99-.35-.43-.35-.54-.87l-.59-2.81 15.42-20.59h5.26v20.3Z"/></svg>